<?xml version="1.0" encoding="utf-8"?>
<svg xmlns="http://www.w3.org/2000/svg" xmlns:xlink="http://www.w3.org/1999/xlink" style="margin: auto; background: rgb(255, 255, 255); display: block; shape-rendering: auto;" width="200px" height="200px" viewBox="0 0 100 100" preserveAspectRatio="xMidYMid">
<g transform="rotate(0 50 50)">
  <rect x="47" y="20.5" rx="1.5" ry="1.5" width="6" height="5" fill="#05851b">
    <animate attributeName="opacity" values="1;0" keyTimes="0;1" dur="1.639344262295082s" begin="-1.5482695810564662s" repeatCount="indefinite"></animate>
  </rect>
</g><g transform="rotate(20 50 50)">
  <rect x="47" y="20.5" rx="1.5" ry="1.5" width="6" height="5" fill="#05851b">
    <animate attributeName="opacity" values="1;0" keyTimes="0;1" dur="1.639344262295082s" begin="-1.4571948998178506s" repeatCount="indefinite"></animate>
  </rect>
</g><g transform="rotate(40 50 50)">
  <rect x="47" y="20.5" rx="1.5" ry="1.5" width="6" height="5" fill="#05851b">
    <animate attributeName="opacity" values="1;0" keyTimes="0;1" dur="1.639344262295082s" begin="-1.366120218579235s" repeatCount="indefinite"></animate>
  </rect>
</g><g transform="rotate(60 50 50)">
  <rect x="47" y="20.5" rx="1.5" ry="1.5" width="6" height="5" fill="#05851b">
    <animate attributeName="opacity" values="1;0" keyTimes="0;1" dur="1.639344262295082s" begin="-1.2750455373406193s" repeatCount="indefinite"></animate>
  </rect>
</g><g transform="rotate(80 50 50)">
  <rect x="47" y="20.5" rx="1.5" ry="1.5" width="6" height="5" fill="#05851b">
    <animate attributeName="opacity" values="1;0" keyTimes="0;1" dur="1.639344262295082s" begin="-1.1839708561020037s" repeatCount="indefinite"></animate>
  </rect>
</g><g transform="rotate(100 50 50)">
  <rect x="47" y="20.5" rx="1.5" ry="1.5" width="6" height="5" fill="#05851b">
    <animate attributeName="opacity" values="1;0" keyTimes="0;1" dur="1.639344262295082s" begin="-1.0928961748633879s" repeatCount="indefinite"></animate>
  </rect>
</g><g transform="rotate(120 50 50)">
  <rect x="47" y="20.5" rx="1.5" ry="1.5" width="6" height="5" fill="#05851b">
    <animate attributeName="opacity" values="1;0" keyTimes="0;1" dur="1.639344262295082s" begin="-1.0018214936247722s" repeatCount="indefinite"></animate>
  </rect>
</g><g transform="rotate(140 50 50)">
  <rect x="47" y="20.5" rx="1.5" ry="1.5" width="6" height="5" fill="#05851b">
    <animate attributeName="opacity" values="1;0" keyTimes="0;1" dur="1.639344262295082s" begin="-0.9107468123861566s" repeatCount="indefinite"></animate>
  </rect>
</g><g transform="rotate(160 50 50)">
  <rect x="47" y="20.5" rx="1.5" ry="1.5" width="6" height="5" fill="#05851b">
    <animate attributeName="opacity" values="1;0" keyTimes="0;1" dur="1.639344262295082s" begin="-0.819672131147541s" repeatCount="indefinite"></animate>
  </rect>
</g><g transform="rotate(180 50 50)">
  <rect x="47" y="20.5" rx="1.5" ry="1.5" width="6" height="5" fill="#05851b">
    <animate attributeName="opacity" values="1;0" keyTimes="0;1" dur="1.639344262295082s" begin="-0.7285974499089253s" repeatCount="indefinite"></animate>
  </rect>
</g><g transform="rotate(200 50 50)">
  <rect x="47" y="20.5" rx="1.5" ry="1.5" width="6" height="5" fill="#05851b">
    <animate attributeName="opacity" values="1;0" keyTimes="0;1" dur="1.639344262295082s" begin="-0.6375227686703097s" repeatCount="indefinite"></animate>
  </rect>
</g><g transform="rotate(220 50 50)">
  <rect x="47" y="20.5" rx="1.5" ry="1.5" width="6" height="5" fill="#05851b">
    <animate attributeName="opacity" values="1;0" keyTimes="0;1" dur="1.639344262295082s" begin="-0.5464480874316939s" repeatCount="indefinite"></animate>
  </rect>
</g><g transform="rotate(240 50 50)">
  <rect x="47" y="20.5" rx="1.5" ry="1.5" width="6" height="5" fill="#05851b">
    <animate attributeName="opacity" values="1;0" keyTimes="0;1" dur="1.639344262295082s" begin="-0.4553734061930783s" repeatCount="indefinite"></animate>
  </rect>
</g><g transform="rotate(260 50 50)">
  <rect x="47" y="20.5" rx="1.5" ry="1.5" width="6" height="5" fill="#05851b">
    <animate attributeName="opacity" values="1;0" keyTimes="0;1" dur="1.639344262295082s" begin="-0.36429872495446264s" repeatCount="indefinite"></animate>
  </rect>
</g><g transform="rotate(280 50 50)">
  <rect x="47" y="20.5" rx="1.5" ry="1.5" width="6" height="5" fill="#05851b">
    <animate attributeName="opacity" values="1;0" keyTimes="0;1" dur="1.639344262295082s" begin="-0.27322404371584696s" repeatCount="indefinite"></animate>
  </rect>
</g><g transform="rotate(300 50 50)">
  <rect x="47" y="20.5" rx="1.5" ry="1.5" width="6" height="5" fill="#05851b">
    <animate attributeName="opacity" values="1;0" keyTimes="0;1" dur="1.639344262295082s" begin="-0.18214936247723132s" repeatCount="indefinite"></animate>
  </rect>
</g><g transform="rotate(320 50 50)">
  <rect x="47" y="20.5" rx="1.5" ry="1.5" width="6" height="5" fill="#05851b">
    <animate attributeName="opacity" values="1;0" keyTimes="0;1" dur="1.639344262295082s" begin="-0.09107468123861566s" repeatCount="indefinite"></animate>
  </rect>
</g><g transform="rotate(340 50 50)">
  <rect x="47" y="20.5" rx="1.5" ry="1.5" width="6" height="5" fill="#05851b">
    <animate attributeName="opacity" values="1;0" keyTimes="0;1" dur="1.639344262295082s" begin="0s" repeatCount="indefinite"></animate>
  </rect>
</g>
<!-- [ldio] generated by https://loading.io/ --></svg>